<svg width="20" height="26" viewBox="0 0 20 26" fill="none" xmlns="http://www.w3.org/2000/svg">
<path d="M11.625 0C13.0273 3.30859 6.59766 5.33594 6 8.09375C5.45312 10.625 9.80859 13.5938 9.8125 13.5938C9.14844 12.5469 8.66406 11.6641 8 10.0312C6.875 7.27344 14.8555 4.78516 11.625 0ZM15.875 4.59375C15.875 4.59375 10.2539 4.94922 9.96875 8.625C9.83984 10.2617 11.4531 11.1211 11.5 12.3125C11.5391 13.2852 10.5312 14.0938 10.5312 14.0938C10.5312 14.0938 12.3398 13.7656 12.9062 12.2812C13.5312 10.6328 11.6875 9.50781 11.875 8.1875C12.0547 6.92578 15.875 4.59375 15.875 4.59375ZM17.25 13.0625C16.6602 13.0352 15.9961 13.2539 15.4062 13.6875C16.5703 13.4297 17.5625 14.1602 17.5625 15C17.5625 16.8828 14.875 18.6562 14.875 18.6562C14.875 18.6562 19.0312 18.1914 19.0312 15.0938C19.0312 13.8164 18.2305 13.1094 17.25 13.0625ZM6.21875 13.0938C4.76953 13.1445 1.875 13.3828 1.875 14.5C1.875 16.0547 8.61719 16.1758 13.4375 15.2188C13.4375 15.2188 14.75 14.3047 15.0938 13.9688C11.9336 14.625 4.71875 14.7266 4.71875 14.1562C4.71875 13.6328 7.03125 13.0938 7.03125 13.0938C7.03125 13.0938 6.70312 13.0781 6.21875 13.0938ZM5.78125 15.9688C4.98828 15.9688 3.8125 16.5859 3.8125 17.1875C3.8125 18.3984 9.78125 19.3281 14.1875 17.5625L12.6562 16.625C9.66797 17.6016 4.14844 17.2773 5.78125 15.9688ZM6.53125 18.6875C5.44922 18.6875 4.75 19.3711 4.75 19.875C4.75 21.4258 11.2148 21.5781 13.7812 20L12.1562 18.9375C10.2422 19.7617 5.42578 19.8828 6.53125 18.6875ZM2.90625 20.0938C1.14062 20.0586 0 20.8594 0 21.5312C0 25.1055 18.0938 24.9336 18.0938 21.2812C18.0938 20.6758 17.3789 20.3867 17.125 20.25C18.6016 23.7422 2.34375 23.4688 2.34375 21.4062C2.34375 20.9375 3.54688 20.4688 4.65625 20.6875L3.71875 20.1562C3.44141 20.1133 3.16016 20.0977 2.90625 20.0938ZM20 22.5C17.25 25.1602 10.2891 26.1133 3.28125 24.4688C10.2891 27.3984 19.9648 25.7695 20 22.5Z" fill="black"/>
</svg>
