<svg width="28" height="28" viewBox="0 0 28 28" fill="none" xmlns="http://www.w3.org/2000/svg">
<path d="M20.5522 7.99749V10.593C20.5414 11.5631 20.1549 12.4913 19.474 13.1824C18.793 13.8735 17.8707 14.2737 16.9008 14.2988H11.0627C10.2842 14.3143 9.54265 14.6336 8.99653 15.1887C8.45041 15.7437 8.14308 16.4903 8.14021 17.269V22.8346C8.14021 24.4184 9.51764 25.3503 11.0627 25.8048C12.9633 26.3992 15.0002 26.3992 16.9008 25.8048C18.3723 25.3788 19.8233 24.5213 19.8233 22.8346V20.6062H13.9851V19.8637H22.7457C24.4444 19.8637 25.0774 18.6788 25.6682 16.9004C26.268 14.9657 26.268 12.8947 25.6682 10.9601C25.2482 9.26895 24.4466 7.9967 22.7457 7.9967L20.5522 7.99749ZM17.2687 22.0916C17.4898 22.0882 17.707 22.1507 17.8925 22.2712C18.0781 22.3916 18.2235 22.5646 18.3104 22.7681C18.3972 22.9715 18.4216 23.1962 18.3802 23.4135C18.3389 23.6308 18.2339 23.8309 18.0784 23.9883C17.923 24.1457 17.7242 24.2532 17.5074 24.2972C17.2906 24.3412 17.0657 24.3196 16.8612 24.2353C16.6567 24.151 16.4819 24.0076 16.3592 23.8236C16.2364 23.6396 16.1712 23.4232 16.1719 23.202C16.171 23.0571 16.1986 22.9134 16.2532 22.7791C16.3078 22.6449 16.3883 22.5227 16.4902 22.4196C16.592 22.3164 16.7132 22.2344 16.8468 22.1781C16.9804 22.1219 17.1237 22.0925 17.2687 22.0916V22.0916Z" fill="black"/>
<path d="M13.8557 1.75005C12.9197 1.75105 11.9854 1.83081 11.0627 1.98848C8.58926 2.42546 8.14021 3.3401 8.14021 5.02675V7.25459H13.9852V7.99755H5.94667C5.08637 7.98178 4.24817 8.27049 3.58006 8.81271C2.91195 9.35493 2.45692 10.1158 2.2953 10.9609C1.74663 12.903 1.74663 14.9591 2.2953 16.9012C2.71075 18.6316 3.703 19.8646 5.40155 19.8646H7.41125V17.1938C7.43258 16.234 7.82474 15.3197 8.50549 14.6427C9.18624 13.9657 10.1027 13.5786 11.0626 13.5625H16.9007C17.2877 13.5596 17.6703 13.4805 18.0267 13.3296C18.383 13.1787 18.7062 12.9591 18.9776 12.6833C19.249 12.4074 19.4634 12.0808 19.6085 11.722C19.7536 11.3633 19.8266 10.9794 19.8232 10.5924V5.02692C19.7741 4.25665 19.4536 3.52872 18.9185 2.97245C18.3834 2.41619 17.6685 2.06761 16.9007 1.98866C15.8942 1.8241 14.8756 1.74428 13.8557 1.75005ZM10.6948 3.54187C10.9157 3.53846 11.1326 3.60079 11.3179 3.72095C11.5033 3.84112 11.6488 4.01368 11.7358 4.21672C11.8229 4.41975 11.8476 4.64409 11.8068 4.86121C11.7661 5.07833 11.6617 5.27843 11.5069 5.43607C11.3522 5.59372 11.1541 5.70179 10.9377 5.74656C10.7214 5.79132 10.4966 5.77075 10.292 5.68747C10.0874 5.60418 9.9122 5.46194 9.78863 5.27882C9.66505 5.09571 9.59872 4.87998 9.59805 4.65907C9.59588 4.36565 9.71008 4.08332 9.91564 3.87393C10.1212 3.66453 10.4014 3.54513 10.6948 3.54187V3.54187Z" fill="black"/>
</svg>
